<mxfile host="app.diagrams.net" modified="2022-11-24T07:49:55.111Z" agent="5.0 (Windows NT 10.0; Win64; x64) AppleWebKit/537.36 (KHTML, like Gecko) Chrome/107.0.0.0 Safari/537.36" etag="5TMDm_7bf7aaD8AmrwzY" version="20.5.3" type="github">
  <diagram id="R2lEEEUBdFMjLlhIrx00" name="Page-1">
    <mxGraphModel dx="1662" dy="794" grid="1" gridSize="10" guides="1" tooltips="1" connect="1" arrows="1" fold="1" page="1" pageScale="1" pageWidth="850" pageHeight="1100" math="0" shadow="0" extFonts="Permanent Marker^https://fonts.googleapis.com/css?family=Permanent+Marker">
      <root>
        <mxCell id="0" />
        <mxCell id="1" parent="0" />
        <mxCell id="C-vyLk0tnHw3VtMMgP7b-1" value="" style="edgeStyle=entityRelationEdgeStyle;endArrow=ERzeroToMany;startArrow=ERone;endFill=1;startFill=0;entryX=0;entryY=0.126;entryDx=0;entryDy=0;entryPerimeter=0;" parent="1" source="C-vyLk0tnHw3VtMMgP7b-24" target="fdf9Q6qdR5b3NxyW4pNR-5" edge="1">
          <mxGeometry width="100" height="100" relative="1" as="geometry">
            <mxPoint x="340" y="720" as="sourcePoint" />
            <mxPoint x="450" y="195" as="targetPoint" />
          </mxGeometry>
        </mxCell>
        <mxCell id="C-vyLk0tnHw3VtMMgP7b-23" value="User" style="shape=table;startSize=30;container=1;collapsible=1;childLayout=tableLayout;fixedRows=1;rowLines=0;fontStyle=1;align=center;resizeLast=1;" parent="1" vertex="1">
          <mxGeometry x="120" y="120" width="250" height="120" as="geometry" />
        </mxCell>
        <mxCell id="C-vyLk0tnHw3VtMMgP7b-24" value="" style="shape=partialRectangle;collapsible=0;dropTarget=0;pointerEvents=0;fillColor=none;points=[[0,0.5],[1,0.5]];portConstraint=eastwest;top=0;left=0;right=0;bottom=1;" parent="C-vyLk0tnHw3VtMMgP7b-23" vertex="1">
          <mxGeometry y="30" width="250" height="30" as="geometry" />
        </mxCell>
        <mxCell id="C-vyLk0tnHw3VtMMgP7b-25" value="ID" style="shape=partialRectangle;overflow=hidden;connectable=0;fillColor=none;top=0;left=0;bottom=0;right=0;fontStyle=1;" parent="C-vyLk0tnHw3VtMMgP7b-24" vertex="1">
          <mxGeometry width="100" height="30" as="geometry">
            <mxRectangle width="100" height="30" as="alternateBounds" />
          </mxGeometry>
        </mxCell>
        <mxCell id="C-vyLk0tnHw3VtMMgP7b-26" value="Integer" style="shape=partialRectangle;overflow=hidden;connectable=0;fillColor=none;top=0;left=0;bottom=0;right=0;align=left;spacingLeft=6;fontStyle=5;" parent="C-vyLk0tnHw3VtMMgP7b-24" vertex="1">
          <mxGeometry x="100" width="150" height="30" as="geometry">
            <mxRectangle width="150" height="30" as="alternateBounds" />
          </mxGeometry>
        </mxCell>
        <mxCell id="C-vyLk0tnHw3VtMMgP7b-27" value="" style="shape=partialRectangle;collapsible=0;dropTarget=0;pointerEvents=0;fillColor=none;points=[[0,0.5],[1,0.5]];portConstraint=eastwest;top=0;left=0;right=0;bottom=0;" parent="C-vyLk0tnHw3VtMMgP7b-23" vertex="1">
          <mxGeometry y="60" width="250" height="60" as="geometry" />
        </mxCell>
        <mxCell id="C-vyLk0tnHw3VtMMgP7b-28" value="username&#xa;&#xa;password" style="shape=partialRectangle;overflow=hidden;connectable=0;fillColor=none;top=0;left=0;bottom=0;right=0;" parent="C-vyLk0tnHw3VtMMgP7b-27" vertex="1">
          <mxGeometry width="100" height="60" as="geometry">
            <mxRectangle width="100" height="60" as="alternateBounds" />
          </mxGeometry>
        </mxCell>
        <mxCell id="C-vyLk0tnHw3VtMMgP7b-29" value="varchar(150)&#xa;&#xa;varchar(150)" style="shape=partialRectangle;overflow=hidden;connectable=0;fillColor=none;top=0;left=0;bottom=0;right=0;align=left;spacingLeft=6;" parent="C-vyLk0tnHw3VtMMgP7b-27" vertex="1">
          <mxGeometry x="100" width="150" height="60" as="geometry">
            <mxRectangle width="150" height="60" as="alternateBounds" />
          </mxGeometry>
        </mxCell>
        <mxCell id="fdf9Q6qdR5b3NxyW4pNR-1" value="Movies_Movie" style="shape=table;startSize=30;container=1;collapsible=1;childLayout=tableLayout;fixedRows=1;rowLines=0;fontStyle=1;align=center;resizeLast=1;" vertex="1" parent="1">
          <mxGeometry x="560" y="260" width="250" height="400" as="geometry" />
        </mxCell>
        <mxCell id="fdf9Q6qdR5b3NxyW4pNR-2" value="" style="shape=partialRectangle;collapsible=0;dropTarget=0;pointerEvents=0;fillColor=none;points=[[0,0.5],[1,0.5]];portConstraint=eastwest;top=0;left=0;right=0;bottom=1;" vertex="1" parent="fdf9Q6qdR5b3NxyW4pNR-1">
          <mxGeometry y="30" width="250" height="30" as="geometry" />
        </mxCell>
        <mxCell id="fdf9Q6qdR5b3NxyW4pNR-3" value="ID" style="shape=partialRectangle;overflow=hidden;connectable=0;fillColor=none;top=0;left=0;bottom=0;right=0;fontStyle=1;" vertex="1" parent="fdf9Q6qdR5b3NxyW4pNR-2">
          <mxGeometry width="100" height="30" as="geometry">
            <mxRectangle width="100" height="30" as="alternateBounds" />
          </mxGeometry>
        </mxCell>
        <mxCell id="fdf9Q6qdR5b3NxyW4pNR-4" value="Integer" style="shape=partialRectangle;overflow=hidden;connectable=0;fillColor=none;top=0;left=0;bottom=0;right=0;align=left;spacingLeft=6;fontStyle=5;" vertex="1" parent="fdf9Q6qdR5b3NxyW4pNR-2">
          <mxGeometry x="100" width="150" height="30" as="geometry">
            <mxRectangle width="150" height="30" as="alternateBounds" />
          </mxGeometry>
        </mxCell>
        <mxCell id="fdf9Q6qdR5b3NxyW4pNR-5" value="" style="shape=partialRectangle;collapsible=0;dropTarget=0;pointerEvents=0;fillColor=none;points=[[0,0.5],[1,0.5]];portConstraint=eastwest;top=0;left=0;right=0;bottom=0;" vertex="1" parent="fdf9Q6qdR5b3NxyW4pNR-1">
          <mxGeometry y="60" width="250" height="340" as="geometry" />
        </mxCell>
        <mxCell id="fdf9Q6qdR5b3NxyW4pNR-6" value="title&#xa;&#xa;release_data&#xa;&#xa;popularity&#xa;&#xa;vote_count&#xa;&#xa;vote_average&#xa;&#xa;overview&#xa;&#xa;poster_path&#xa;&#xa;youtube_key&#xa;&#xa;genres&#xa;&#xa;like_users&#xa;&#xa;attention_users&#xa;&#xa;actors" style="shape=partialRectangle;overflow=hidden;connectable=0;fillColor=none;top=0;left=0;bottom=0;right=0;" vertex="1" parent="fdf9Q6qdR5b3NxyW4pNR-5">
          <mxGeometry width="100" height="340" as="geometry">
            <mxRectangle width="100" height="340" as="alternateBounds" />
          </mxGeometry>
        </mxCell>
        <mxCell id="fdf9Q6qdR5b3NxyW4pNR-7" value="varchar(100)&#xa;&#xa;date&#xa;&#xa;float&#xa;&#xa;integer&#xa;&#xa;float&#xa;&#xa;text&#xa;&#xa;varchar(200)&#xa;&#xa;varchar(100)&#xa;&#xa;genre&#xa;&#xa;user&#xa;&#xa;user&#xa;&#xa;actor" style="shape=partialRectangle;overflow=hidden;connectable=0;fillColor=none;top=0;left=0;bottom=0;right=0;align=left;spacingLeft=6;" vertex="1" parent="fdf9Q6qdR5b3NxyW4pNR-5">
          <mxGeometry x="100" width="150" height="340" as="geometry">
            <mxRectangle width="150" height="340" as="alternateBounds" />
          </mxGeometry>
        </mxCell>
        <mxCell id="fdf9Q6qdR5b3NxyW4pNR-8" value="Genres_genre" style="shape=table;startSize=30;container=1;collapsible=1;childLayout=tableLayout;fixedRows=1;rowLines=0;fontStyle=1;align=center;resizeLast=1;" vertex="1" parent="1">
          <mxGeometry x="120" y="640" width="250" height="100" as="geometry" />
        </mxCell>
        <mxCell id="fdf9Q6qdR5b3NxyW4pNR-9" value="" style="shape=partialRectangle;collapsible=0;dropTarget=0;pointerEvents=0;fillColor=none;points=[[0,0.5],[1,0.5]];portConstraint=eastwest;top=0;left=0;right=0;bottom=1;" vertex="1" parent="fdf9Q6qdR5b3NxyW4pNR-8">
          <mxGeometry y="30" width="250" height="30" as="geometry" />
        </mxCell>
        <mxCell id="fdf9Q6qdR5b3NxyW4pNR-10" value="ID" style="shape=partialRectangle;overflow=hidden;connectable=0;fillColor=none;top=0;left=0;bottom=0;right=0;fontStyle=1;" vertex="1" parent="fdf9Q6qdR5b3NxyW4pNR-9">
          <mxGeometry width="100" height="30" as="geometry">
            <mxRectangle width="100" height="30" as="alternateBounds" />
          </mxGeometry>
        </mxCell>
        <mxCell id="fdf9Q6qdR5b3NxyW4pNR-11" value="Integer" style="shape=partialRectangle;overflow=hidden;connectable=0;fillColor=none;top=0;left=0;bottom=0;right=0;align=left;spacingLeft=6;fontStyle=5;" vertex="1" parent="fdf9Q6qdR5b3NxyW4pNR-9">
          <mxGeometry x="100" width="150" height="30" as="geometry">
            <mxRectangle width="150" height="30" as="alternateBounds" />
          </mxGeometry>
        </mxCell>
        <mxCell id="fdf9Q6qdR5b3NxyW4pNR-12" value="" style="shape=partialRectangle;collapsible=0;dropTarget=0;pointerEvents=0;fillColor=none;points=[[0,0.5],[1,0.5]];portConstraint=eastwest;top=0;left=0;right=0;bottom=0;" vertex="1" parent="fdf9Q6qdR5b3NxyW4pNR-8">
          <mxGeometry y="60" width="250" height="40" as="geometry" />
        </mxCell>
        <mxCell id="fdf9Q6qdR5b3NxyW4pNR-13" value="name" style="shape=partialRectangle;overflow=hidden;connectable=0;fillColor=none;top=0;left=0;bottom=0;right=0;" vertex="1" parent="fdf9Q6qdR5b3NxyW4pNR-12">
          <mxGeometry width="100" height="40" as="geometry">
            <mxRectangle width="100" height="40" as="alternateBounds" />
          </mxGeometry>
        </mxCell>
        <mxCell id="fdf9Q6qdR5b3NxyW4pNR-14" value="varchar(50)" style="shape=partialRectangle;overflow=hidden;connectable=0;fillColor=none;top=0;left=0;bottom=0;right=0;align=left;spacingLeft=6;" vertex="1" parent="fdf9Q6qdR5b3NxyW4pNR-12">
          <mxGeometry x="100" width="150" height="40" as="geometry">
            <mxRectangle width="150" height="40" as="alternateBounds" />
          </mxGeometry>
        </mxCell>
        <mxCell id="fdf9Q6qdR5b3NxyW4pNR-15" value="Actors_actor" style="shape=table;startSize=30;container=1;collapsible=1;childLayout=tableLayout;fixedRows=1;rowLines=0;fontStyle=1;align=center;resizeLast=1;" vertex="1" parent="1">
          <mxGeometry x="120" y="800" width="250" height="100" as="geometry" />
        </mxCell>
        <mxCell id="fdf9Q6qdR5b3NxyW4pNR-16" value="" style="shape=partialRectangle;collapsible=0;dropTarget=0;pointerEvents=0;fillColor=none;points=[[0,0.5],[1,0.5]];portConstraint=eastwest;top=0;left=0;right=0;bottom=1;" vertex="1" parent="fdf9Q6qdR5b3NxyW4pNR-15">
          <mxGeometry y="30" width="250" height="30" as="geometry" />
        </mxCell>
        <mxCell id="fdf9Q6qdR5b3NxyW4pNR-17" value="ID" style="shape=partialRectangle;overflow=hidden;connectable=0;fillColor=none;top=0;left=0;bottom=0;right=0;fontStyle=1;" vertex="1" parent="fdf9Q6qdR5b3NxyW4pNR-16">
          <mxGeometry width="100" height="30" as="geometry">
            <mxRectangle width="100" height="30" as="alternateBounds" />
          </mxGeometry>
        </mxCell>
        <mxCell id="fdf9Q6qdR5b3NxyW4pNR-18" value="Integer" style="shape=partialRectangle;overflow=hidden;connectable=0;fillColor=none;top=0;left=0;bottom=0;right=0;align=left;spacingLeft=6;fontStyle=5;" vertex="1" parent="fdf9Q6qdR5b3NxyW4pNR-16">
          <mxGeometry x="100" width="150" height="30" as="geometry">
            <mxRectangle width="150" height="30" as="alternateBounds" />
          </mxGeometry>
        </mxCell>
        <mxCell id="fdf9Q6qdR5b3NxyW4pNR-19" value="" style="shape=partialRectangle;collapsible=0;dropTarget=0;pointerEvents=0;fillColor=none;points=[[0,0.5],[1,0.5]];portConstraint=eastwest;top=0;left=0;right=0;bottom=0;" vertex="1" parent="fdf9Q6qdR5b3NxyW4pNR-15">
          <mxGeometry y="60" width="250" height="40" as="geometry" />
        </mxCell>
        <mxCell id="fdf9Q6qdR5b3NxyW4pNR-20" value="name" style="shape=partialRectangle;overflow=hidden;connectable=0;fillColor=none;top=0;left=0;bottom=0;right=0;" vertex="1" parent="fdf9Q6qdR5b3NxyW4pNR-19">
          <mxGeometry width="100" height="40" as="geometry">
            <mxRectangle width="100" height="40" as="alternateBounds" />
          </mxGeometry>
        </mxCell>
        <mxCell id="fdf9Q6qdR5b3NxyW4pNR-21" value="varchar(50)" style="shape=partialRectangle;overflow=hidden;connectable=0;fillColor=none;top=0;left=0;bottom=0;right=0;align=left;spacingLeft=6;" vertex="1" parent="fdf9Q6qdR5b3NxyW4pNR-19">
          <mxGeometry x="100" width="150" height="40" as="geometry">
            <mxRectangle width="150" height="40" as="alternateBounds" />
          </mxGeometry>
        </mxCell>
        <mxCell id="fdf9Q6qdR5b3NxyW4pNR-22" value="Comments_comment" style="shape=table;startSize=30;container=1;collapsible=1;childLayout=tableLayout;fixedRows=1;rowLines=0;fontStyle=1;align=center;resizeLast=1;" vertex="1" parent="1">
          <mxGeometry x="120" y="320" width="250" height="240" as="geometry" />
        </mxCell>
        <mxCell id="fdf9Q6qdR5b3NxyW4pNR-23" value="" style="shape=partialRectangle;collapsible=0;dropTarget=0;pointerEvents=0;fillColor=none;points=[[0,0.5],[1,0.5]];portConstraint=eastwest;top=0;left=0;right=0;bottom=1;" vertex="1" parent="fdf9Q6qdR5b3NxyW4pNR-22">
          <mxGeometry y="30" width="250" height="30" as="geometry" />
        </mxCell>
        <mxCell id="fdf9Q6qdR5b3NxyW4pNR-24" value="ID" style="shape=partialRectangle;overflow=hidden;connectable=0;fillColor=none;top=0;left=0;bottom=0;right=0;fontStyle=1;" vertex="1" parent="fdf9Q6qdR5b3NxyW4pNR-23">
          <mxGeometry width="100" height="30" as="geometry">
            <mxRectangle width="100" height="30" as="alternateBounds" />
          </mxGeometry>
        </mxCell>
        <mxCell id="fdf9Q6qdR5b3NxyW4pNR-25" value="Integer" style="shape=partialRectangle;overflow=hidden;connectable=0;fillColor=none;top=0;left=0;bottom=0;right=0;align=left;spacingLeft=6;fontStyle=5;" vertex="1" parent="fdf9Q6qdR5b3NxyW4pNR-23">
          <mxGeometry x="100" width="150" height="30" as="geometry">
            <mxRectangle width="150" height="30" as="alternateBounds" />
          </mxGeometry>
        </mxCell>
        <mxCell id="fdf9Q6qdR5b3NxyW4pNR-26" value="" style="shape=partialRectangle;collapsible=0;dropTarget=0;pointerEvents=0;fillColor=none;points=[[0,0.5],[1,0.5]];portConstraint=eastwest;top=0;left=0;right=0;bottom=0;" vertex="1" parent="fdf9Q6qdR5b3NxyW4pNR-22">
          <mxGeometry y="60" width="250" height="180" as="geometry" />
        </mxCell>
        <mxCell id="fdf9Q6qdR5b3NxyW4pNR-27" value="movie&#xa;&#xa;content&#xa;&#xa;created_at&#xa;&#xa;updated_at&#xa;&#xa;user_id&#xa;&#xa;like_users" style="shape=partialRectangle;overflow=hidden;connectable=0;fillColor=none;top=0;left=0;bottom=0;right=0;" vertex="1" parent="fdf9Q6qdR5b3NxyW4pNR-26">
          <mxGeometry width="100" height="180" as="geometry">
            <mxRectangle width="100" height="180" as="alternateBounds" />
          </mxGeometry>
        </mxCell>
        <mxCell id="fdf9Q6qdR5b3NxyW4pNR-28" value="movie&#xa;&#xa;text&#xa;&#xa;date&#xa;&#xa;date&#xa;&#xa;user&#xa;&#xa;user" style="shape=partialRectangle;overflow=hidden;connectable=0;fillColor=none;top=0;left=0;bottom=0;right=0;align=left;spacingLeft=6;" vertex="1" parent="fdf9Q6qdR5b3NxyW4pNR-26">
          <mxGeometry x="100" width="150" height="180" as="geometry">
            <mxRectangle width="150" height="180" as="alternateBounds" />
          </mxGeometry>
        </mxCell>
        <mxCell id="fdf9Q6qdR5b3NxyW4pNR-29" value="" style="edgeStyle=entityRelationEdgeStyle;endArrow=ERzeroToMany;startArrow=ERone;endFill=1;startFill=0;entryX=1;entryY=0.139;entryDx=0;entryDy=0;entryPerimeter=0;" edge="1" parent="1" target="fdf9Q6qdR5b3NxyW4pNR-26">
          <mxGeometry width="100" height="100" relative="1" as="geometry">
            <mxPoint x="370" y="220" as="sourcePoint" />
            <mxPoint x="450" y="250" as="targetPoint" />
          </mxGeometry>
        </mxCell>
        <mxCell id="fdf9Q6qdR5b3NxyW4pNR-30" value="" style="edgeStyle=entityRelationEdgeStyle;endArrow=ERzeroToMany;startArrow=ERone;endFill=1;startFill=0;entryX=1;entryY=0.594;entryDx=0;entryDy=0;entryPerimeter=0;exitX=0;exitY=0.5;exitDx=0;exitDy=0;" edge="1" parent="1" source="fdf9Q6qdR5b3NxyW4pNR-5" target="fdf9Q6qdR5b3NxyW4pNR-26">
          <mxGeometry width="100" height="100" relative="1" as="geometry">
            <mxPoint x="450" y="455" as="sourcePoint" />
            <mxPoint x="530" y="485" as="targetPoint" />
          </mxGeometry>
        </mxCell>
        <mxCell id="fdf9Q6qdR5b3NxyW4pNR-31" value="" style="edgeStyle=entityRelationEdgeStyle;endArrow=ERzeroToMany;startArrow=ERone;endFill=1;startFill=0;entryX=1;entryY=0.5;entryDx=0;entryDy=0;exitX=-0.004;exitY=0.715;exitDx=0;exitDy=0;exitPerimeter=0;" edge="1" parent="1" source="fdf9Q6qdR5b3NxyW4pNR-5" target="fdf9Q6qdR5b3NxyW4pNR-9">
          <mxGeometry width="100" height="100" relative="1" as="geometry">
            <mxPoint x="490" y="520" as="sourcePoint" />
            <mxPoint x="570" y="550" as="targetPoint" />
          </mxGeometry>
        </mxCell>
        <mxCell id="fdf9Q6qdR5b3NxyW4pNR-32" value="" style="edgeStyle=entityRelationEdgeStyle;endArrow=ERzeroToMany;startArrow=ERone;endFill=1;startFill=0;entryX=1;entryY=0.5;entryDx=0;entryDy=0;exitX=0;exitY=0.915;exitDx=0;exitDy=0;exitPerimeter=0;" edge="1" parent="1" source="fdf9Q6qdR5b3NxyW4pNR-5" target="fdf9Q6qdR5b3NxyW4pNR-16">
          <mxGeometry width="100" height="100" relative="1" as="geometry">
            <mxPoint x="450" y="510" as="sourcePoint" />
            <mxPoint x="530" y="540" as="targetPoint" />
          </mxGeometry>
        </mxCell>
      </root>
    </mxGraphModel>
  </diagram>
</mxfile>
